<svg width="24" height="24" viewBox="0 0 24 24" fill="none" xmlns="http://www.w3.org/2000/svg">
<path d="M22.0835 15.8285L23.0027 16.2223C23.1668 15.8392 23.0761 15.3945 22.7752 15.1063C22.4742 14.818 22.026 14.7466 21.6503 14.9272L22.0835 15.8285ZM10.181 1.87988L10.9763 2.48614C11.2296 2.15381 11.2496 1.69899 11.0264 1.34572C10.8032 0.992451 10.3838 0.815227 9.97492 0.90135L10.181 1.87988ZM17.8622 15.7841C13.1074 15.7841 9.29471 12.0287 9.29471 7.44732L7.29471 7.44732C7.29471 13.179 12.0491 17.7841 17.8622 17.7841L17.8622 15.7841ZM21.6503 14.9272C20.51 15.4752 19.2249 15.7841 17.8622 15.7841L17.8622 17.7841C19.5299 17.7841 21.1106 17.4055 22.5166 16.7298L21.6503 14.9272ZM21.1643 15.4347C19.7381 18.7635 16.3599 21.1178 12.4039 21.1178L12.4039 23.1178C17.1661 23.1178 21.2638 20.2811 23.0027 16.2223L21.1643 15.4347ZM12.4039 21.1178C7.14115 21.1178 2.91681 16.9606 2.91681 11.8836L0.916811 11.8836C0.91681 18.1109 6.0829 23.1178 12.4039 23.1178L12.4039 21.1178ZM2.91681 11.8836C2.91681 7.47457 6.09982 3.76138 10.3871 2.85841L9.97492 0.90135C4.81388 1.98833 0.916811 6.47705 0.916811 11.8836L2.91681 11.8836ZM9.29471 7.44732C9.29471 5.58945 9.91819 3.87411 10.9763 2.48614L9.38574 1.27362C8.07375 2.99465 7.29471 5.13241 7.29471 7.44732L9.29471 7.44732Z" fill="#212135"/>
<path d="M16.8468 3.57441C17.0772 2.97676 17.9228 2.97676 18.1532 3.57441L18.8698 5.43363C18.9432 5.62417 19.0962 5.77314 19.2886 5.84149L21.1431 6.50026C21.764 6.72083 21.764 7.59893 21.1431 7.8195L19.2886 8.47828C19.0962 8.54663 18.9432 8.6956 18.8698 8.88613L18.1532 10.7454C17.9228 11.343 17.0772 11.343 16.8468 10.7454L16.1302 8.88613C16.0568 8.6956 15.9038 8.54663 15.7114 8.47828L13.8569 7.8195C13.236 7.59893 13.236 6.72083 13.8569 6.50027L15.7114 5.84149C15.9038 5.77314 16.0568 5.62417 16.1302 5.43363L16.8468 3.57441Z" stroke="#212135" stroke-width="2" stroke-linecap="round"/>
</svg>
