<svg width="24" height="25" viewBox="0 0 24 25" fill="none" xmlns="http://www.w3.org/2000/svg">
<path fill-rule="evenodd" clip-rule="evenodd" d="M2.44714 5.24321C2.72703 4.93787 3.20146 4.91724 3.5068 5.19714L12 12.9826L20.4932 5.19714C20.7985 4.91724 21.273 4.93787 21.5529 5.24321C21.8328 5.54855 21.8121 6.02298 21.5068 6.30287L12.5068 14.5529C12.2201 14.8157 11.78 14.8157 11.4932 14.5529L2.49321 6.30287C2.18787 6.02298 2.16724 5.54855 2.44714 5.24321Z" fill="black"/>
<path fill-rule="evenodd" clip-rule="evenodd" d="M2.25 5.75C2.25 5.33579 2.58579 5 3 5H21C21.4142 5 21.75 5.33579 21.75 5.75V18.5C21.75 18.8978 21.592 19.2794 21.3107 19.5607C21.0294 19.842 20.6478 20 20.25 20H3.75C3.35218 20 2.97065 19.842 2.68934 19.5607C2.40804 19.2794 2.25 18.8978 2.25 18.5V5.75ZM3.75 6.5V18.5H20.25V6.5H3.75Z" fill="black"/>
<path fill-rule="evenodd" clip-rule="evenodd" d="M10.9121 11.9931C11.1921 12.2984 11.1716 12.7728 10.8663 13.0527L3.7413 19.5871C3.43603 19.8671 2.9616 19.8466 2.68163 19.5413C2.40167 19.236 2.42218 18.7616 2.72745 18.4816L9.85245 11.9473C10.1577 11.6673 10.6322 11.6878 10.9121 11.9931Z" fill="black"/>
<path fill-rule="evenodd" clip-rule="evenodd" d="M13.0879 11.9931C13.3679 11.6878 13.8423 11.6673 14.1476 11.9473L21.2726 18.4816C21.5778 18.7616 21.5983 19.236 21.3184 19.5413C21.0384 19.8466 20.564 19.8671 20.2587 19.5871L13.1337 13.0527C12.8284 12.7728 12.8079 12.2984 13.0879 11.9931Z" fill="black"/>
</svg>
