<svg width="164" height="38" viewBox="0 0 164 38" fill="none" xmlns="http://www.w3.org/2000/svg">
<g clip-path="url(#clip0_1231_3820)">
<path d="M25.1283 24.1895V7.42126C25.1283 7.07697 24.7114 6.9102 24.472 7.15497L10.8294 21.2441C10.7137 21.3652 10.5335 21.3948 10.3856 21.3194L3.40284 17.8281C3.15 17.7017 2.85143 17.8846 2.85143 18.1697V24.1921C2.85143 24.402 2.67928 24.5741 2.46948 24.5741H0.382195C0.172391 24.5714 0.000244141 24.402 0.000244141 24.1895V13.5594C0.000244141 13.2743 0.298812 13.0914 0.551653 13.2178L9.79111 17.8362C9.93905 17.9115 10.1193 17.8792 10.2349 17.7608L27.3205 0.11846C27.5599 -0.129002 27.9768 0.0404556 27.9768 0.38475V24.1921C27.9768 24.402 27.8047 24.5741 27.5949 24.5741H25.5076C25.2978 24.5714 25.1283 24.402 25.1283 24.1895Z" fill="#F15958"/>
<path d="M0.000244141 36.7611V27.632C0.000244141 27.4221 0.172391 27.25 0.382195 27.25H2.46679C2.67659 27.25 2.84874 27.4221 2.84874 27.632V33.9153C2.84874 34.1251 3.02089 34.2973 3.23069 34.2973H24.7464C24.9562 34.2973 25.1283 34.1251 25.1283 33.9153V27.632C25.1283 27.4221 25.3005 27.25 25.5103 27.25H27.5976C27.8074 27.25 27.9795 27.4221 27.9795 27.632V36.7611C27.9795 36.9709 27.8074 37.1431 27.5976 37.1431H0.382195C0.172391 37.1431 0.000244141 36.9709 0.000244141 36.7611Z" fill="#4663A9"/>
<path d="M66.0642 10.7295L60.7572 24.746L55.426 10.7295H53.7852L50.0222 30.1767H52.2305L55.0225 15.7594L60.0363 29.0363H61.4539L66.4811 15.7594L69.2596 30.1767H71.4814L67.7023 10.7295H66.0642Z" fill="#4663A9"/>
<path d="M84.4946 18.7442C83.9862 17.9023 83.3111 17.2164 82.4746 16.6892C81.6353 16.162 80.6563 15.8984 79.5373 15.8984C78.5367 15.8984 77.6006 16.0867 76.7238 16.4606C75.8496 16.8345 75.083 17.3563 74.424 18.0234C73.765 18.6904 73.2512 19.4597 72.8747 20.3366C72.5008 21.2108 72.3125 22.1495 72.3125 23.1501C72.3125 24.1696 72.5008 25.1244 72.8827 26.0175C73.262 26.9105 73.7892 27.6959 74.467 28.371C75.1422 29.0462 75.9276 29.5761 76.8206 29.9607C77.7136 30.3453 78.6712 30.5363 79.6879 30.5363C80.7719 30.5363 81.7026 30.2781 82.488 29.7643C83.2707 29.2506 83.884 28.5728 84.3278 27.7282L84.4112 30.1732H86.5926V16.2858H84.4112L84.4946 18.7442ZM83.6823 25.8426C83.3084 26.6307 82.7758 27.2575 82.0926 27.7255C81.4067 28.1935 80.589 28.4275 79.6341 28.4275C78.7277 28.4275 77.8831 28.1962 77.1057 27.7335C76.3284 27.2709 75.7043 26.6469 75.2363 25.8588C74.7683 25.0706 74.5343 24.1965 74.5343 23.2335C74.5343 22.2706 74.7629 21.3964 75.2229 20.6083C75.6801 19.8202 76.2961 19.1934 77.0708 18.7254C77.8427 18.2574 78.6981 18.0234 79.6341 18.0234C80.5782 18.0234 81.3933 18.2547 82.0792 18.7173C82.7651 19.18 83.2976 19.8067 83.6769 20.5921C84.0562 21.3802 84.2471 22.2598 84.2471 23.2308C84.2444 24.183 84.0588 25.0545 83.6823 25.8426Z" fill="#4663A9"/>
<path d="M93.4329 16.4929C92.669 16.891 92.0423 17.4236 91.5501 18.0906V16.2858H89.3687V30.1759H91.5501V22.0204C91.5501 21.2888 91.7249 20.6271 92.0773 20.0354C92.4296 19.4436 92.903 18.9702 93.5002 18.6179C94.0973 18.2655 94.7563 18.0906 95.4799 18.0906C95.8403 18.0906 96.2169 18.1498 96.6042 18.2709L97.4784 16.1056C96.9781 15.9657 96.459 15.8985 95.9237 15.8985C95.028 15.8958 94.1968 16.0948 93.4329 16.4929Z" fill="#4663A9"/>
<path d="M103.191 14.89C103.867 14.1637 104.652 13.5908 105.545 13.1739C106.438 12.7569 107.398 12.5498 108.426 12.5498C109.547 12.5498 110.613 12.808 111.621 13.3272C112.63 13.8463 113.469 14.5457 114.136 15.4252L116.067 14.3843C115.196 13.1712 114.101 12.1975 112.775 11.4685C111.452 10.7369 110.002 10.3711 108.428 10.3711C107.113 10.3711 105.879 10.632 104.719 11.1565C103.563 11.681 102.546 12.4019 101.672 13.3245C100.797 14.2471 100.112 15.3176 99.6167 16.5388C99.1217 17.7627 98.8743 19.0672 98.8743 20.4551C98.8743 21.8431 99.1217 23.1503 99.6167 24.3715C100.112 25.5927 100.797 26.6659 101.672 27.5858C102.546 28.5084 103.563 29.2293 104.719 29.7511C105.876 30.2729 107.113 30.5365 108.428 30.5365C110.002 30.5365 111.452 30.1734 112.775 29.4471C114.099 28.7209 115.196 27.7499 116.067 26.5368L114.136 25.4958C113.477 26.3485 112.651 27.0371 111.656 27.5643C110.661 28.0915 109.585 28.3551 108.426 28.3551C107.406 28.3551 106.454 28.1507 105.564 27.7445C104.676 27.3383 103.891 26.7681 103.21 26.0365C102.53 25.3049 102 24.4656 101.621 23.5161C101.241 22.5666 101.05 21.5472 101.05 20.4525C101.05 19.3792 101.239 18.3652 101.612 17.4103C101.989 16.4554 102.516 15.6162 103.191 14.89Z" fill="#4663A9"/>
<path d="M127.618 16.8827C126.566 16.2264 125.401 15.8955 124.124 15.8955C123.169 15.8955 122.27 16.0865 121.428 16.4657C120.586 16.845 119.847 17.3722 119.212 18.042C118.577 18.7144 118.08 19.4918 117.719 20.3767C117.359 21.2617 117.178 22.2138 117.178 23.2306C117.178 24.5728 117.49 25.7993 118.117 26.9048C118.741 28.0104 119.58 28.8926 120.632 29.5516C121.684 30.2079 122.849 30.5388 124.126 30.5388C125.089 30.5388 125.99 30.3478 126.827 29.9685C127.663 29.5893 128.4 29.0648 129.035 28.3923C129.67 27.7199 130.167 26.9452 130.528 26.0656C130.888 25.1861 131.069 24.2419 131.069 23.2333C131.069 21.8803 130.757 20.6511 130.13 19.5375C129.506 18.4239 128.667 17.539 127.618 16.8827ZM128.263 25.7724C127.846 26.5498 127.276 27.1738 126.555 27.6472C125.834 28.1206 125.022 28.3547 124.124 28.3547C123.263 28.3547 122.469 28.1287 121.74 27.6741C121.014 27.2196 120.436 26.6036 120.005 25.8262C119.575 25.0489 119.36 24.1828 119.36 23.2279C119.36 22.3026 119.567 21.4473 119.984 20.6645C120.401 19.8818 120.971 19.2551 121.692 18.7817C122.413 18.3083 123.225 18.0742 124.124 18.0742C125.014 18.0742 125.818 18.3083 126.542 18.7763C127.265 19.2443 127.835 19.8683 128.258 20.6511C128.68 21.4338 128.89 22.2918 128.89 23.2279C128.887 24.1451 128.68 24.9924 128.263 25.7724Z" fill="#4663A9"/>
<path d="M144.846 18.7148C144.372 17.8809 143.73 17.2058 142.915 16.6867C142.1 16.1675 141.142 15.9093 140.039 15.9093C139.03 15.9093 138.086 16.1003 137.207 16.4795C136.327 16.8588 135.553 17.3833 134.88 18.0558C134.208 18.7282 133.683 19.5056 133.304 20.3905C132.925 21.2755 132.734 22.2223 132.734 23.2309C132.734 24.2396 132.922 25.1837 133.304 26.0633C133.683 26.9429 134.208 27.7175 134.88 28.39C135.553 29.0624 136.327 29.5869 137.207 29.9662C138.086 30.3455 139.03 30.5364 140.039 30.5364C141.142 30.5364 142.1 30.2782 142.915 29.7591C143.73 29.2399 144.372 28.5594 144.846 27.7175V30.176H147.027V9.34082H144.846V18.7148ZM144.103 25.8427C143.73 26.6308 143.197 27.2576 142.514 27.7256C141.828 28.1936 141.01 28.4276 140.055 28.4276C139.149 28.4276 138.304 28.1963 137.527 27.7337C136.75 27.271 136.125 26.647 135.657 25.8589C135.189 25.0708 134.955 24.1966 134.955 23.2336C134.955 22.2707 135.187 21.3965 135.649 20.6084C136.112 19.8203 136.728 19.1936 137.497 18.7255C138.267 18.2575 139.117 18.0235 140.053 18.0235C140.997 18.0235 141.812 18.2548 142.498 18.7175C143.184 19.1801 143.716 19.8068 144.095 20.5922C144.475 21.3804 144.666 22.2599 144.666 23.2309C144.666 24.1831 144.48 25.0546 144.103 25.8427Z" fill="#4663A9"/>
<path d="M162.988 20.8477C162.674 19.8605 162.203 18.9971 161.579 18.2574C160.955 17.5177 160.204 16.9367 159.336 16.5225C158.464 16.1056 157.512 15.8984 156.474 15.8984C155.519 15.8984 154.62 16.0894 153.778 16.4687C152.937 16.8479 152.197 17.3751 151.562 18.0449C150.927 18.7173 150.43 19.4947 150.069 20.3796C149.709 21.2646 149.529 22.2168 149.529 23.2335C149.529 24.5757 149.841 25.8023 150.467 26.9078C151.091 28.0133 151.931 28.8955 152.982 29.5545C154.034 30.2108 155.199 30.5417 156.476 30.5417C157.864 30.5417 159.12 30.1517 160.239 29.3689C161.361 28.5862 162.198 27.5802 162.754 26.3483L160.546 25.8346C160.11 26.6227 159.54 27.2413 158.838 27.6878C158.133 28.137 157.348 28.3603 156.476 28.3603C155.669 28.3522 154.938 28.1585 154.276 27.7847C153.614 27.4108 153.071 26.897 152.651 26.2488C152.229 25.6005 151.96 24.8635 151.839 24.0405H163.354C163.421 22.8973 163.3 21.8348 162.988 20.8477ZM151.777 22.3136C151.879 21.4798 152.148 20.7266 152.584 20.0488C153.02 19.3737 153.571 18.8384 154.244 18.4457C154.916 18.053 155.659 17.8566 156.474 17.8566C157.289 17.8566 158.036 18.0583 158.717 18.4618C159.397 18.8653 159.957 19.4032 160.398 20.0811C160.839 20.7562 161.089 21.504 161.154 22.3163H151.777V22.3136Z" fill="#4663A9"/>
</g>
<defs>
<clipPath id="clip0_1231_3820">
<rect width="163.37" height="37.1434" fill="white"/>
</clipPath>
</defs>
</svg>
