<svg width="19" height="20" viewBox="0 0 19 20" fill="none" xmlns="http://www.w3.org/2000/svg">
<path fill-rule="evenodd" clip-rule="evenodd" d="M4.58281 0.793369C4.90697 0.751784 5.23581 0.817882 5.51873 0.981496C5.80038 1.14438 6.02097 1.39492 6.14689 1.69484L8.02854 6.08538C8.02882 6.08601 8.02909 6.08664 8.02936 6.08727C8.12678 6.31241 8.16749 6.55801 8.14793 6.80256C8.12831 7.04779 8.04867 7.28443 7.91604 7.49163L7.9111 7.49935L6.34841 9.87604C7.04583 11.3145 8.20903 12.4749 9.64911 13.1688L9.65214 13.1667L11.9941 11.6024C12.2019 11.462 12.4418 11.3764 12.6915 11.3534C12.9413 11.3304 13.1927 11.3708 13.4227 11.4708C13.4237 11.4712 13.4246 11.4716 13.4255 11.472L17.8053 13.353C18.1051 13.479 18.3555 13.6995 18.5183 13.9811C18.6819 14.264 18.748 14.5928 18.7064 14.917C18.5442 16.1833 17.9261 17.347 16.9678 18.1905C16.0096 19.0341 14.7768 19.4995 13.5002 19.4998C9.91975 19.4998 6.4858 18.0775 3.95406 15.5457C1.42232 13.014 0 9.58021 0 5.99979C0.000287756 4.72316 0.465735 3.49021 1.30925 2.53195C2.15271 1.57374 3.31663 0.955654 4.58281 0.793369ZM5.67187 10.1998L4.99536 10.5235C4.88459 10.2921 4.83505 10.0361 4.85147 9.78007C4.86788 9.52402 4.9497 9.27645 5.08911 9.06105L5.09205 9.05649L6.65268 6.68288L6.65126 6.67961L4.76689 2.28273C3.86505 2.39995 3.03617 2.8403 2.43518 3.52305C1.8327 4.20748 1.50025 5.08797 1.5 5.99979M5.67187 10.1998L4.99685 10.5267C5.84248 12.2729 7.25454 13.6814 9.00298 14.5225L9.00716 14.5245C9.24257 14.636 9.50296 14.6842 9.76269 14.6645C10.0217 14.6448 10.2712 14.5582 10.4867 14.4131C10.4873 14.4128 10.4879 14.4124 10.4884 14.412L12.8291 12.8484L17.2165 14.7327L17.2177 14.7332C17.1005 15.635 16.6595 16.4636 15.9767 17.0646C15.2923 17.6671 14.4118 17.9995 13.5 17.9998M1.5 5.99979C1.50004 9.18232 2.76432 12.2347 5.01472 14.4851C7.26512 16.7355 10.3175 17.9997 13.5 17.9998" fill="black"/>
</svg>
