<svg width="45" height="45" viewBox="0 0 45 45" fill="none" xmlns="http://www.w3.org/2000/svg">
<path opacity="0.1" fill-rule="evenodd" clip-rule="evenodd" d="M22.5002 44C34.4561 44 44.1483 34.3741 44.1483 22.5C44.1483 10.6259 34.4561 1 22.5002 1C10.5443 1 0.852051 10.6259 0.852051 22.5C0.852051 34.3741 10.5443 44 22.5002 44Z" stroke="#0A142F" stroke-width="1.5"/>
<path d="M24.4714 16.9963H26.461C26.644 16.9963 26.7926 16.8573 26.7926 16.686V14.824C26.7926 14.6527 26.644 14.5137 26.461 14.5137H24.4714C22.4605 14.5137 20.8237 16.0449 20.8237 17.9274V20.0997H18.5025C18.3195 20.0997 18.1709 20.2387 18.1709 20.41V22.272C18.1709 22.4433 18.3195 22.5824 18.5025 22.5824H20.8237V29.0994C20.8237 29.2707 20.9723 29.4097 21.1553 29.4097H23.145C23.328 29.4097 23.4766 29.2707 23.4766 29.0994V22.5824H25.7978C25.9404 22.5824 26.0671 22.4967 26.1128 22.3701L26.776 20.5081C26.8098 20.4138 26.7926 20.3095 26.7303 20.2282C26.6673 20.1475 26.5678 20.0997 26.461 20.0997H23.4766V17.9274C23.4766 17.4141 23.9229 16.9963 24.4714 16.9963Z" fill="#0A142F"/>
</svg>
