<svg width="46" height="45" viewBox="0 0 46 45" fill="none" xmlns="http://www.w3.org/2000/svg">
<path opacity="0.1" fill-rule="evenodd" clip-rule="evenodd" d="M22.6481 44C34.6041 44 44.2963 34.3741 44.2963 22.5C44.2963 10.6259 34.6041 1 22.6481 1C10.6922 1 1 10.6259 1 22.5C1 34.3741 10.6922 44 22.6481 44Z" stroke="#0A142F" stroke-width="1.5"/>
<path d="M17.6794 18.1609C18.693 18.1609 19.5146 17.3449 19.5146 16.3383C19.5146 15.3317 18.693 14.5156 17.6794 14.5156C16.6659 14.5156 15.8442 15.3317 15.8442 16.3383C15.8442 17.3449 16.6659 18.1609 17.6794 18.1609Z" fill="#0A142F"/>
<path d="M19.2088 19.3789H16.1501C15.9813 19.3789 15.8442 19.515 15.8442 19.6827V28.7959C15.8442 28.9636 15.9813 29.0997 16.1501 29.0997H19.2088C19.3776 29.0997 19.5146 28.9636 19.5146 28.7959V19.6827C19.5146 19.515 19.3776 19.3789 19.2088 19.3789Z" fill="#0A142F"/>
<path d="M28.3239 18.8726C27.0166 18.4279 25.3815 18.8185 24.4009 19.519C24.3672 19.3884 24.2473 19.2912 24.1048 19.2912H21.0461C20.8773 19.2912 20.7402 19.4273 20.7402 19.595V28.7082C20.7402 28.8759 20.8773 29.012 21.0461 29.012H24.1048C24.2736 29.012 24.4106 28.8759 24.4106 28.7082V22.1588C24.9049 21.736 25.5417 21.6011 26.0629 21.821C26.5682 22.033 26.8576 22.5507 26.8576 23.2402V28.7082C26.8576 28.8759 26.9946 29.012 27.1635 29.012H30.2221C30.391 29.012 30.528 28.8759 30.528 28.7082V22.6284C30.4931 20.132 29.3106 19.2079 28.3239 18.8726Z" fill="#0A142F"/>
</svg>
