<svg width="46" height="45" viewBox="0 0 46 45" fill="none" xmlns="http://www.w3.org/2000/svg">
<path opacity="0.1" fill-rule="evenodd" clip-rule="evenodd" d="M23.3518 44C35.3077 44 44.9999 34.3741 44.9999 22.5C44.9999 10.6259 35.3077 1 23.3518 1C11.3958 1 1.70361 10.6259 1.70361 22.5C1.70361 34.3741 11.3958 44 23.3518 44Z" stroke="#0A142F" stroke-width="1.5"/>
<path d="M30.4279 18.5245C30.3274 18.4117 30.1655 18.3833 30.0326 18.4529C29.95 18.4961 29.7946 18.5528 29.6102 18.6089C29.8429 18.2928 30.03 17.939 30.1126 17.621C30.1483 17.4839 30.0961 17.3394 29.9824 17.2577C29.8687 17.1767 29.7173 17.1767 29.6036 17.2577C29.4245 17.3853 28.5599 17.7689 28.0132 17.8931C26.7778 16.7878 25.3402 16.673 23.8456 17.5643C22.6307 18.2888 22.3663 19.7622 22.4179 20.6602C19.6371 20.3867 17.9085 18.8864 16.9356 17.6446C16.8675 17.5575 16.7577 17.5116 16.6546 17.5184C16.5462 17.5265 16.4484 17.5879 16.3929 17.6831C15.9328 18.4765 15.8052 19.3536 16.0254 20.22C16.1457 20.6926 16.3559 21.1092 16.5998 21.4469C16.4828 21.3881 16.3697 21.3145 16.2633 21.2267C16.1655 21.1444 16.0287 21.1288 15.913 21.1835C15.798 21.2396 15.7246 21.3584 15.7246 21.4887C15.7246 22.9763 16.6355 23.9689 17.4862 24.4874C17.3487 24.4706 17.2052 24.4395 17.0605 24.3942C16.9362 24.3558 16.8014 24.3942 16.7154 24.4942C16.6295 24.5934 16.609 24.7352 16.6626 24.8561C17.1405 25.9358 18.046 26.6786 19.1664 26.948C18.1882 27.5348 16.8787 27.8224 15.6797 27.6813C15.5243 27.659 15.3763 27.7596 15.3273 27.9122C15.2784 28.0648 15.3425 28.2323 15.4794 28.3106C17.2984 29.3538 18.943 29.7266 20.3642 29.7266C22.4324 29.7266 24.0287 28.9379 25.0004 28.2782C27.62 26.5023 29.2526 23.3139 29.0252 20.461C29.445 20.1443 30.0729 19.5596 30.4623 18.9309C30.5429 18.804 30.5284 18.6365 30.4279 18.5245Z" fill="#0A142F"/>
</svg>
