<svg width="40" height="40" viewBox="0 0 40 40" fill="none" xmlns="http://www.w3.org/2000/svg">
<g id="Icons/Feather/arrow-right">
<path id="Vector (Stroke)" fill-rule="evenodd" clip-rule="evenodd" d="M7.21802 20.1713C7.21802 19.2768 7.94311 18.5518 8.83755 18.5518H31.5111C32.4055 18.5518 33.1306 19.2768 33.1306 20.1713C33.1306 21.0657 32.4055 21.7908 31.5111 21.7908H8.83755C7.94311 21.7908 7.21802 21.0657 7.21802 20.1713Z" fill="#263967"/>
<path id="Vector (Stroke)_2" fill-rule="evenodd" clip-rule="evenodd" d="M19.0293 7.69017C19.6618 7.0577 20.6872 7.0577 21.3197 7.69017L32.6564 19.0269C33.2889 19.6594 33.2889 20.6848 32.6564 21.3173L21.3197 32.6541C20.6872 33.2865 19.6618 33.2865 19.0293 32.6541C18.3968 32.0216 18.3968 30.9962 19.0293 30.3637L29.2209 20.1721L19.0293 9.98054C18.3968 9.34807 18.3968 8.32264 19.0293 7.69017Z" fill="#263967"/>
</g>
</svg>
