<svg width="48" height="48" viewBox="0 0 48 48" fill="none" xmlns="http://www.w3.org/2000/svg">
<g id="Icons/Phosphor/Communication/ChatTeardropDots">
<g id="Vector (Stroke)">
<path fill-rule="evenodd" clip-rule="evenodd" d="M24.7501 7.5C20.573 7.5 16.5669 9.15937 13.6132 12.1131C10.6595 15.0668 9.00013 19.0728 9.00013 23.25V39H24.7501C26.8184 39 28.8665 38.5926 30.7774 37.8011C32.6883 37.0096 34.4245 35.8495 35.8871 34.3869C37.3496 32.9244 38.5097 31.1881 39.3012 29.2773C40.0927 27.3664 40.5001 25.3183 40.5001 23.25C40.5001 21.1817 40.0927 19.1336 39.3012 17.2227C38.5097 15.3119 37.3496 13.5756 35.8871 12.1131C34.4245 10.6505 32.6883 9.49041 30.7774 8.6989C28.8665 7.90739 26.8184 7.5 24.7501 7.5ZM24.7501 42H8.95205C8.5654 42.0036 8.18184 41.9305 7.82357 41.7848C7.46169 41.6377 7.13294 41.4196 6.85671 41.1434C6.58049 40.8672 6.3624 40.5384 6.2153 40.1766C6.06967 39.8183 5.99655 39.4347 6.00013 39.0481V23.25C6.00013 18.2772 7.97557 13.5081 11.4919 9.99175C15.0082 6.47544 19.7773 4.5 24.7501 4.5C27.2124 4.5 29.6506 4.98498 31.9254 5.92726C34.2003 6.86953 36.2673 8.25065 38.0084 9.99175C39.7495 11.7328 41.1306 13.7998 42.0729 16.0747C43.0151 18.3495 43.5001 20.7877 43.5001 23.25C43.5001 25.7123 43.0151 28.1505 42.0729 30.4253C41.1306 32.7002 39.7495 34.7672 38.0084 36.5083C36.2673 38.2493 34.2003 39.6305 31.9254 40.5727C29.6506 41.515 27.2124 42 24.7501 42Z" fill="url(#paint0_linear_1231_3873)"/>
<path fill-rule="evenodd" clip-rule="evenodd" d="M24.7501 7.5C20.573 7.5 16.5669 9.15937 13.6132 12.1131C10.6595 15.0668 9.00013 19.0728 9.00013 23.25V39H24.7501C26.8184 39 28.8665 38.5926 30.7774 37.8011C32.6883 37.0096 34.4245 35.8495 35.8871 34.3869C37.3496 32.9244 38.5097 31.1881 39.3012 29.2773C40.0927 27.3664 40.5001 25.3183 40.5001 23.25C40.5001 21.1817 40.0927 19.1336 39.3012 17.2227C38.5097 15.3119 37.3496 13.5756 35.8871 12.1131C34.4245 10.6505 32.6883 9.49041 30.7774 8.6989C28.8665 7.90739 26.8184 7.5 24.7501 7.5ZM24.7501 42H8.95205C8.5654 42.0036 8.18184 41.9305 7.82357 41.7848C7.46169 41.6377 7.13294 41.4196 6.85671 41.1434C6.58049 40.8672 6.3624 40.5384 6.2153 40.1766C6.06967 39.8183 5.99655 39.4347 6.00013 39.0481V23.25C6.00013 18.2772 7.97557 13.5081 11.4919 9.99175C15.0082 6.47544 19.7773 4.5 24.7501 4.5C27.2124 4.5 29.6506 4.98498 31.9254 5.92726C34.2003 6.86953 36.2673 8.25065 38.0084 9.99175C39.7495 11.7328 41.1306 13.7998 42.0729 16.0747C43.0151 18.3495 43.5001 20.7877 43.5001 23.25C43.5001 25.7123 43.0151 28.1505 42.0729 30.4253C41.1306 32.7002 39.7495 34.7672 38.0084 36.5083C36.2673 38.2493 34.2003 39.6305 31.9254 40.5727C29.6506 41.515 27.2124 42 24.7501 42Z" stroke="url(#paint1_linear_1231_3873)" stroke-opacity="0.63" stroke-width="2" stroke-linecap="round" stroke-linejoin="round"/>
<path fill-rule="evenodd" clip-rule="evenodd" d="M24.7501 7.5C20.573 7.5 16.5669 9.15937 13.6132 12.1131C10.6595 15.0668 9.00013 19.0728 9.00013 23.25V39H24.7501C26.8184 39 28.8665 38.5926 30.7774 37.8011C32.6883 37.0096 34.4245 35.8495 35.8871 34.3869C37.3496 32.9244 38.5097 31.1881 39.3012 29.2773C40.0927 27.3664 40.5001 25.3183 40.5001 23.25C40.5001 21.1817 40.0927 19.1336 39.3012 17.2227C38.5097 15.3119 37.3496 13.5756 35.8871 12.1131C34.4245 10.6505 32.6883 9.49041 30.7774 8.6989C28.8665 7.90739 26.8184 7.5 24.7501 7.5ZM24.7501 42H8.95205C8.5654 42.0036 8.18184 41.9305 7.82357 41.7848C7.46169 41.6377 7.13294 41.4196 6.85671 41.1434C6.58049 40.8672 6.3624 40.5384 6.2153 40.1766C6.06967 39.8183 5.99655 39.4347 6.00013 39.0481V23.25C6.00013 18.2772 7.97557 13.5081 11.4919 9.99175C15.0082 6.47544 19.7773 4.5 24.7501 4.5C27.2124 4.5 29.6506 4.98498 31.9254 5.92726C34.2003 6.86953 36.2673 8.25065 38.0084 9.99175C39.7495 11.7328 41.1306 13.7998 42.0729 16.0747C43.0151 18.3495 43.5001 20.7877 43.5001 23.25C43.5001 25.7123 43.0151 28.1505 42.0729 30.4253C41.1306 32.7002 39.7495 34.7672 38.0084 36.5083C36.2673 38.2493 34.2003 39.6305 31.9254 40.5727C29.6506 41.515 27.2124 42 24.7501 42Z" stroke="black" stroke-opacity="0.2" stroke-width="2" stroke-linecap="round" stroke-linejoin="round"/>
</g>
<path id="Vector" d="M24.75 26.25C25.9926 26.25 27 25.2426 27 24C27 22.7574 25.9926 21.75 24.75 21.75C23.5074 21.75 22.5 22.7574 22.5 24C22.5 25.2426 23.5074 26.25 24.75 26.25Z" fill="url(#paint2_linear_1231_3873)"/>
<path id="Vector_2" d="M15.75 26.25C16.9926 26.25 18 25.2426 18 24C18 22.7574 16.9926 21.75 15.75 21.75C14.5074 21.75 13.5 22.7574 13.5 24C13.5 25.2426 14.5074 26.25 15.75 26.25Z" fill="url(#paint3_linear_1231_3873)"/>
<path id="Vector_3" d="M33.75 26.25C34.9926 26.25 36 25.2426 36 24C36 22.7574 34.9926 21.75 33.75 21.75C32.5074 21.75 31.5 22.7574 31.5 24C31.5 25.2426 32.5074 26.25 33.75 26.25Z" fill="url(#paint4_linear_1231_3873)"/>
</g>
<defs>
<linearGradient id="paint0_linear_1231_3873" x1="43.6029" y1="7.82207" x2="4.6286" y2="9.38881" gradientUnits="userSpaceOnUse">
<stop stop-color="#5241F2"/>
<stop offset="1" stop-color="#F15858"/>
</linearGradient>
<linearGradient id="paint1_linear_1231_3873" x1="24.7501" y1="4.5" x2="24.7501" y2="42.0001" gradientUnits="userSpaceOnUse">
<stop stop-color="#F15958"/>
<stop offset="1" stop-color="#4663A9"/>
</linearGradient>
<linearGradient id="paint2_linear_1231_3873" x1="27.0123" y1="22.1486" x2="22.3354" y2="22.3367" gradientUnits="userSpaceOnUse">
<stop stop-color="#5241F2"/>
<stop offset="1" stop-color="#F15858"/>
</linearGradient>
<linearGradient id="paint3_linear_1231_3873" x1="18.0123" y1="22.1486" x2="13.3354" y2="22.3367" gradientUnits="userSpaceOnUse">
<stop stop-color="#5241F2"/>
<stop offset="1" stop-color="#F15858"/>
</linearGradient>
<linearGradient id="paint4_linear_1231_3873" x1="36.0123" y1="22.1486" x2="31.3354" y2="22.3367" gradientUnits="userSpaceOnUse">
<stop stop-color="#5241F2"/>
<stop offset="1" stop-color="#F15858"/>
</linearGradient>
</defs>
</svg>
